<?xml version="1.0" encoding="UTF-8" standalone="no"?>
<!-- Created with Inkscape (http://www.inkscape.org/) -->

<svg
   xmlns:dc="http://purl.org/dc/elements/1.1/"
   xmlns:cc="http://creativecommons.org/ns#"
   xmlns:rdf="http://www.w3.org/1999/02/22-rdf-syntax-ns#"
   xmlns:svg="http://www.w3.org/2000/svg"
   xmlns="http://www.w3.org/2000/svg"
   xmlns:sodipodi="http://sodipodi.sourceforge.net/DTD/sodipodi-0.dtd"
   xmlns:inkscape="http://www.inkscape.org/namespaces/inkscape"
   width="485.46481"
   height="139.58444"
   id="svg3796"
   version="1.1"
   inkscape:version="0.48.4 r9939"
   sodipodi:docname="OPAR_map_chapters_1_Reality__ungrouped_white_reduced-page.svg">
  <defs
     id="defs3798" />
  <sodipodi:namedview
     id="base"
     pagecolor="#ffffff"
     bordercolor="#666666"
     borderopacity="1.0"
     inkscape:pageopacity="0.0"
     inkscape:pageshadow="2"
     inkscape:zoom="1.979899"
     inkscape:cx="200.53986"
     inkscape:cy="85.388812"
     inkscape:document-units="px"
     inkscape:current-layer="layer1"
     showgrid="false"
     inkscape:window-width="1920"
     inkscape:window-height="1027"
     inkscape:window-x="-8"
     inkscape:window-y="-8"
     inkscape:window-maximized="1"
     showborder="false"
     inkscape:showpageshadow="false"
     fit-margin-top="0"
     fit-margin-left="0"
     fit-margin-right="0"
     fit-margin-bottom="0" />
  <metadata
     id="metadata3801">
    <rdf:RDF>
      <cc:Work
         rdf:about="">
        <dc:format>image/svg+xml</dc:format>
        <dc:type
           rdf:resource="http://purl.org/dc/dcmitype/StillImage" />
        <dc:title></dc:title>
      </cc:Work>
    </rdf:RDF>
  </metadata>
  <g
     inkscape:label="Layer 1"
     inkscape:groupmode="layer"
     id="layer1"
     transform="translate(-95.668237,-599.38486)">
    <path
       inkscape:connector-curvature="0"
       id="path3829"
       d="m 508.35508,738.7456 c -2.18456,-0.87694 -2.27478,-1.33647 -2,-10.18662 l 0.28777,-9.26825 7.19786,0.34476 c 3.95882,0.18962 8.78929,-0.18046 10.73436,-0.82239 4.31759,-1.42493 7.56778,-5.33087 7.56778,-9.09463 0,-1.5414 -6.53319,-20.25982 -14.51821,-41.5965 -7.98501,-21.33668 -14.29913,-39.36485 -14.03138,-40.0626 0.68542,-1.78618 24.87633,-1.80332 26.30618,-0.0186 0.55081,0.6875 4.28396,11.7125 8.29587,24.5 4.01192,12.7875 7.59907,23.25 7.97144,23.25 0.37237,0 3.68841,-9.3375 7.36899,-20.75 3.68057,-11.4125 7.25293,-22.325 7.93858,-24.25 l 1.24664,-3.5 9.22784,-0.28775 c 7.67727,-0.2394 9.33007,-0.0213 9.83622,1.29763 0.73036,1.9033 -29.59364,87.52686 -33.91333,95.75846 -3.8978,7.42765 -9.25154,12.21547 -15.85075,14.17522 -5.70913,1.69543 -19.94959,2.0031 -23.66586,0.51131 z M 220.32724,710.29038 c -20.48478,-5.75066 -32.86544,-26.56091 -29.33023,-49.30026 1.57474,-10.12912 4.9135,-17.05588 11.60002,-24.066 9.29313,-9.74288 20.35714,-13.8014 35.11439,-12.88073 11.20728,0.6992 18.73901,4.15201 25.87867,11.8637 6.35654,6.86581 9.20759,13.651 10.74705,25.57675 0.82878,6.4203 0.7901,8.62078 -0.17193,9.77994 -1.03676,1.24923 -5.796,1.53947 -28.88184,1.76132 l -27.64052,0.26563 0.30678,3 c 1.17196,11.46032 9.30675,18.01449 19.89381,16.02835 3.57946,-0.67151 9.42612,-5.5664 11.8131,-9.89005 0.93949,-1.70175 1.80721,-1.76592 11.85478,-0.87671 6.64971,0.5885 11.13948,1.44226 11.61291,2.20828 2.86644,4.638 -11.18805,20.96186 -21.48138,24.94994 -7.7556,3.00486 -23.42378,3.7953 -31.31561,1.57984 z m 26.99857,-55.99965 c -1.04854,-9.92177 -11.86678,-15.41496 -21.16789,-10.74845 -3.73685,1.87484 -7.97128,8.2409 -7.99862,12.02518 l -0.0164,2.27674 14.75,-0.27674 14.75,-0.27673 -0.31704,-3 z m 49.78642,55.96406 c -5.67352,-1.74896 -12.3756,-7.40484 -15.1932,-12.82151 -2.99461,-5.75699 -3.00642,-16.50578 -0.0244,-22.23723 5.77018,-11.09042 19.27979,-17.07831 43.24822,-19.16901 l 8.5,-0.74143 -0.12295,-3.84766 c -0.0858,-2.68561 -0.89675,-4.62147 -2.68507,-6.40979 -5.62439,-5.62439 -20.52125,-3.33585 -24.16611,3.71254 l -1.61613,3.12525 -7.70487,-0.65248 c -16.54562,-1.40115 -17.47397,-2.27991 -11.98722,-11.34692 3.85654,-6.37305 10.53445,-11.32291 18.6511,-13.82474 8.01561,-2.47068 29.62476,-2.45154 36.74054,0.0326 6.94344,2.42393 12.61497,7.5278 15.47138,13.92287 2.24896,5.03509 2.39856,6.73361 3.06443,34.7935 0.38503,16.225 0.84739,30.625 1.02747,32 l 0.32743,2.5 -11.48784,0.28498 c -12.67701,0.31447 -14.01216,-0.25496 -14.01216,-5.97611 0,-1.54488 -0.23824,-2.80887 -0.52942,-2.80887 -0.29118,0 -2.79558,1.7913 -5.56533,3.98066 -8.39255,6.63393 -21.11653,8.81864 -31.93587,5.4834 z m 28.04589,-18.75373 c 5.60571,-2.96438 8.44384,-8.23021 8.46741,-15.71033 l 0.0173,-5.5 -5.90008,0.32019 c -7.86176,0.42664 -16.02869,3.56885 -18.57684,7.14739 -2.81169,3.94867 -2.70267,10.06551 0.22692,12.73083 4.36475,3.97102 9.54121,4.30328 15.76527,1.01192 z m 150.48473,19.42115 c -7.0196,-1.86462 -11.62645,-5.55773 -15.13303,-12.13148 -1.63411,-3.06346 -1.92933,-6.61814 -2.36697,-28.5 l -0.5,-25 -6,-0.5 -6,-0.5 0,-8.5 0,-8.5 6.13394,-0.29471 c 5.96598,-0.28663 6.15081,-0.37905 6.75,-3.375 0.33883,-1.69416 0.61606,-6.08803 0.61606,-9.76416 0,-9.51975 0.4334,-9.86131 13,-10.24529 l 10.5,-0.32084 0.5,11.5 0.5,11.5 8,0.5 8,0.5 0,8.5 0,8.5 -8,0.5 -8,0.5 0,21.33962 0,21.33962 2.5,2.02528 c 2.06746,1.67487 3.47816,1.93681 8.15357,1.51395 3.44802,-0.31185 6.08131,-0.0836 6.75,0.5851 1.72312,1.72312 1.40831,16.1927 -0.38467,17.68074 -1.75997,1.46065 -20.58864,2.32398 -25.0189,1.14717 z M 95.749842,708.20894 c -0.79292,-2.0663 -0.79292,-105.77012 0,-107.83642 0.53382,-1.39112 3.9994,-1.5797 28.749998,-1.56443 35.81083,0.0221 43.24261,1.42411 53.0106,10.00053 6.01122,5.27791 8.06197,10.98824 8.074,22.48211 0.009,8.89877 -0.28266,10.56053 -2.65134,15.09002 -2.77552,5.30747 -7.70536,10.28048 -12.80596,12.9181 -2.90062,1.49997 -2.94845,1.64054 -1.62274,4.7687 14.49866,34.21127 17.63845,41.98955 17.63845,43.69626 0,1.93574 -0.60694,2.02692 -13.49153,2.02692 -11.76735,0 -13.63076,-0.22364 -14.58103,-1.75 -0.59922,-0.9625 -4.76931,-10.75 -9.26685,-21.75 l -8.17735,-20 -8.74162,-0.28893 -8.74162,-0.28894 0,20.45715 c 0,11.25143 -0.27315,21.16895 -0.60699,22.03893 -0.5097,1.32826 -2.65632,1.58179 -13.39301,1.58179 -10.736688,0 -12.883308,-0.25353 -13.393008,-1.58179 z m 55.393008,-64.94605 c 10.07566,-5.83765 8.29758,-20.35071 -2.87344,-23.45366 -1.99461,-0.55404 -8.46406,-1.00986 -14.37656,-1.01292 l -10.75,-0.006 0,13.60283 0,13.60282 12.25,-0.35282 c 10.06093,-0.28978 12.87545,-0.7152 15.75,-2.38067 z m 221.47063,65.30878 c -0.26969,-0.70452 -0.37341,-25.58094 -0.23049,-55.28094 l 0.25986,-54 12.5,0 12.5,0 0,55 0,55 -12.26951,0.28094 c -9.26022,0.21203 -12.38978,-0.0332 -12.75986,-1 z m 40.99816,-0.002 c -0.2707,-0.70543 -0.37441,-19.28185 -0.23048,-41.28094 l 0.26169,-39.998 12.5,0 12.5,0 0,41 0,41 -12.26951,0.28094 c -9.26778,0.2122 -12.38993,-0.0329 -12.7617,-1.00167 z m -0.0314,-91.08192 c -0.28799,-0.75049 -0.39171,-5.15191 -0.23049,-9.78094 l 0.2931,-8.41608 12.5,0 12.5,0 0,9.5 0,9.5 -12.26951,0.28093 c -9.63865,0.2207 -12.38179,-0.0117 -12.79313,-1.08358 z"
       style="fill:#ffffff;fill-opacity:1;stroke:#000000;stroke-width:1;stroke-miterlimit:4;stroke-opacity:1;stroke-dasharray:none" />
    <path
       inkscape:connector-curvature="0"
       id="path3827"
       d="m 508.85509,738.146 c -1.56975,-0.45348 -1.75266,-1.57364 -1.5,-9.18587 l 0.28776,-8.6694 5.9465,0.32443 c 8.0238,0.43776 11.92501,-0.42471 15.49006,-3.4245 5.7783,-4.86212 5.67603,-5.33741 -10.41704,-48.41576 -8.73103,-23.37144 -14.29492,-39.60877 -13.75677,-40.14692 0.49698,-0.49698 6.26381,-0.77618 12.81516,-0.62043 l 11.91155,0.28318 7.98326,25.25 c 4.3908,13.8875 8.24406,25.25 8.56282,25.25 0.31876,0 4.28274,-11.475 8.80885,-25.5 l 8.22929,-25.5 8.96316,0 c 7.85985,0 8.96316,0.2148 8.96316,1.74498 0,2.59159 -31.86109,91.17893 -34.25917,95.25502 -6.11931,10.40119 -11.62996,13.32053 -25.74083,13.63656 -5.775,0.12934 -11.30449,0.003 -12.28776,-0.28129 z m -288.688,-28.8966 c -21.06979,-5.8996 -32.94617,-27.89061 -27.89898,-51.65945 2.73747,-12.8916 13.09188,-25.45356 24.59016,-29.83273 8.07737,-3.07631 21.9392,-3.79023 29.71307,-1.5303 14.6739,4.26581 24.0182,15.60372 26.59721,32.2717 0.6134,3.96434 0.97105,8.46434 0.79479,10 l -0.32049,2.79211 -28,0.5 -28,0.5 -0.31353,3.80305 c -0.41364,5.01741 3.03017,12.05289 7.13448,14.57528 9.26087,5.69145 19.2549,2.80564 25.17905,-7.27053 0.87982,-1.49646 2.1732,-1.61735 10.76187,-1.0059 12.88902,0.9176 13.52575,1.42487 10.19019,8.11845 -3.42848,6.88007 -11.92481,14.55094 -19.2054,17.33949 -7.57828,2.90258 -23.33135,3.60834 -31.22242,1.39883 z m 27.65302,-51.53593 c 1.31972,-1.31972 0.19158,-6.94778 -2.09097,-10.43139 -2.7389,-4.18009 -6.41646,-5.92379 -12.56773,-5.95895 -7.17069,-0.041 -12.0079,3.25437 -14.55074,9.91269 -2.82985,7.40986 -2.56489,7.55491 13.8008,7.55491 8.90617,0 14.73918,-0.4078 15.40864,-1.07726 z m 48.49549,51.2302 c -9.72328,-3.46406 -16.17275,-12.42282 -16.17275,-22.46506 0,-17.1734 14.95105,-27.07143 44.5,-29.46028 l 9,-0.7276 0.32125,-3.93261 c 0.44084,-5.39657 -1.35933,-8.22557 -6.47813,-10.18045 -7.73342,-2.95342 -17.8453,-0.18408 -20.9005,5.72402 l -1.59123,3.0771 -7.17569,-0.63528 c -16.66128,-1.47505 -16.69311,-1.50268 -11.72035,-10.17275 6.04788,-10.54456 16.69559,-14.88003 36.54465,-14.88003 19.12339,0 27.4099,3.61646 32.58426,14.22066 2.22691,4.56377 2.36372,6.13245 3.03324,34.77934 0.38563,16.5 0.85445,30.9 1.04182,32 0.32425,1.90354 -0.21243,2 -11.12769,2 l -11.46838,0 -0.88138,-4.5 c -0.48476,-2.475 -1.03149,-4.6575 -1.21496,-4.85 -0.18347,-0.1925 -1.95053,1.26695 -3.9268,3.24323 -5.91008,5.91007 -10.87079,7.91737 -20.54011,8.31132 -6.48568,0.26423 -9.76245,-0.10346 -13.82725,-1.55161 z m 28.52566,-16.24899 c 6.15866,-2.98135 9.30159,-8.64888 9.30159,-16.77319 0,-4.3619 -0.41064,-6.35111 -1.38854,-6.72636 -2.1974,-0.84322 -13.68559,1.51877 -18.45917,3.79524 -9.46475,4.51363 -11.05584,16.12908 -2.76935,20.21707 4.28125,2.11208 8.20543,1.96097 13.31547,-0.51276 z m 149.13994,16.91425 c -2.0139,-0.5363 -5.46714,-2.52053 -7.67387,-4.4094 -6.55928,-5.61451 -7.48679,-9.88645 -8.12206,-37.4088 l -0.54242,-23.5 -5.75,-0.2999 -5.75,-0.29991 0,-7.90238 0,-7.90238 6.25,-0.29771 6.25,-0.29772 0.81786,-9 c 1.31864,-14.51074 0.15995,-13.13444 11.74941,-13.95609 5.55188,-0.39361 10.39546,-0.41658 10.76352,-0.051 0.36807,0.36553 0.89421,5.69168 1.16921,11.83587 l 0.5,11.17126 7.75,0.29206 7.75,0.29207 0,7.91587 0,7.91587 -7.75,0.29207 -7.75,0.29206 -0.26913,21.61559 c -0.25025,20.09994 -0.13365,21.78279 1.663,24 1.69489,2.09165 2.77158,2.38441 8.76912,2.38441 l 6.83701,0 0,8.49018 0,8.49018 -3,0.6415 c -4.59484,0.98254 -19.55257,0.79058 -23.66165,-0.30366 z M 96.613402,707.57167 c -0.26974,-0.70452 -0.37346,-25.13094 -0.23049,-54.28094 l 0.25994,-53 28.276828,-0.26562 c 22.36048,-0.21004 29.63308,0.0489 34.75893,1.23768 17.47613,4.05299 25.46424,13.31482 25.46424,29.52458 0,12.57455 -4.41916,21.2345 -13.57362,26.59937 -2.47039,1.44775 -4.40911,3.32536 -4.38731,4.24901 0.0215,0.91024 4.25329,11.55498 9.40399,23.65498 5.15071,12.1 9.15657,22.3375 8.90191,22.75 -0.25465,0.4125 -6.31121,0.75 -13.45902,0.75 l -12.99601,0 -2.3168,-5.25 c -1.27423,-2.8875 -5.14295,-12.225 -8.59714,-20.75 -3.4542,-8.525 -6.73068,-16.07902 -7.28108,-16.7867 -0.7113,-0.91457 -3.48716,-1.20379 -9.59783,-1 l -8.59709,0.2867 -0.5,21.5 -0.5,21.5 -12.26951,0.28094 c -9.26019,0.21203 -12.389798,-0.0332 -12.759938,-1 z m 50.982528,-61.88959 c 2.17419,-0.60363 5.43669,-2.58112 7.25,-4.39443 2.8756,-2.8756 3.29692,-3.95501 3.29692,-8.44658 0,-11.55855 -4.68595,-14.52053 -23,-14.53825 l -12.5,-0.0121 -0.28135,12.94711 c -0.15474,7.12092 -0.0564,13.53342 0.21862,14.25 0.63554,1.65621 19.2299,1.80059 25.01581,0.19424 z m 225.15391,61.52686 c -0.33385,-0.86998 -0.60699,-24.68318 -0.60699,-52.91821 0,-28.23503 0.27314,-52.04823 0.60699,-52.91821 0.50641,-1.31969 2.57762,-1.58179 12.5,-1.58179 l 11.89301,0 0,54.5 0,54.5 -11.89301,0 c -9.92238,0 -11.99359,-0.2621 -12.5,-1.58179 z m 41,0 c -0.33385,-0.86998 -0.60699,-18.38318 -0.60699,-38.91821 0,-20.53503 0.27314,-38.04823 0.60699,-38.91821 0.50641,-1.31969 2.57762,-1.58179 12.5,-1.58179 l 11.89301,0 0,40.5 0,40.5 -11.89301,0 c -9.92238,0 -11.99359,-0.2621 -12.5,-1.58179 z m 0,-91 c -0.33385,-0.86998 -0.60699,-4.20818 -0.60699,-7.41821 0,-9.3268 -0.47593,-9 13.10699,-9 l 11.89301,0 0,9 0,9 -11.89301,0 c -9.92238,0 -11.99359,-0.2621 -12.5,-1.58179 z"
       style="fill:#ffffff;fill-opacity:1;stroke:#000000;stroke-width:1;stroke-miterlimit:4;stroke-opacity:1;stroke-dasharray:none" />
    <path
       inkscape:connector-curvature="0"
       id="path3825"
       d="m 510.14285,737.95041 c -2.41042,-0.72298 -2.5,-1.05282 -2.5,-9.20476 l 0,-8.45492 7.56045,0.34262 c 11.94912,0.54151 17.93955,-3.32626 17.93955,-11.58281 0,-1.56174 -6.3,-19.66261 -14,-40.22418 -7.7,-20.56156 -14,-38.21997 -14,-39.24092 0,-1.72258 0.88187,-1.83605 12.24463,-1.57549 l 12.24463,0.28078 7.98546,25.25664 c 4.392,13.89115 8.39967,25.11856 8.90592,24.94981 0.50624,-0.16874 4.45171,-11.23809 8.76769,-24.59854 4.31599,-13.36046 8.0998,-24.70037 8.40847,-25.19982 0.30868,-0.49945 4.35968,-0.90809 9.00222,-0.90809 7.36311,0 8.44098,0.22282 8.44098,1.74498 0,2.59159 -31.86109,91.17893 -34.25917,95.25502 -5.95059,10.1144 -11.69524,13.28278 -24.74083,13.64544 -5.225,0.14525 -10.625,-0.0733 -12,-0.48576 z M 221.39352,709.3082 c -11.95529,-3.36188 -20.38462,-10.29789 -25.29858,-20.81676 -8.08073,-17.2977 -4.78357,-38.96447 7.85234,-51.60038 8.05027,-8.05027 18.5012,-12.10033 31.22417,-12.10033 20.41019,0 34.74983,12.72094 37.9971,33.70789 0.6134,3.96434 0.97105,8.46434 0.79479,10 l -0.32049,2.79211 -28,0.5 -28,0.5 -0.31353,3.80305 c -0.42131,5.11048 3.03346,12.05172 7.31554,14.69819 8.40823,5.19657 18.98808,2.93498 24.0919,-5.15 l 2.59306,-4.10768 5.15652,0.61953 c 2.83608,0.34074 6.983,0.62344 9.21538,0.62822 2.23238,0.005 4.8309,0.57321 5.7745,1.26319 1.59862,1.16894 1.53852,1.60989 -0.88131,6.46585 -3.43173,6.88661 -11.92591,14.55292 -19.2054,17.33362 -7.46829,2.85282 -22.45509,3.58402 -29.99599,1.4635 z m 27.00329,-55.01747 c -0.28286,-4.59855 -2.49094,-8.00693 -7.34591,-11.33907 -2.77884,-1.90722 -4.36402,-2.26239 -8.58591,-1.92371 -6.67592,0.53553 -11.52485,4.10823 -13.85432,10.20787 -2.88319,7.54952 -2.68772,7.6466 14.76083,7.33107 l 15.27135,-0.27616 -0.24604,-4 z m 49.22513,54.75763 c -9.79868,-3.50345 -14.50325,-8.60902 -16.49633,-17.90241 -0.76785,-3.58034 -0.76117,-6.39386 0.0235,-9.92593 3.09083,-13.91221 15.50146,-21.00246 41.4937,-23.70557 l 12,-1.24796 0.30861,-3.1742 c 1.35863,-13.97375 -21.73129,-17.08599 -29.30857,-3.95045 -0.91347,1.58354 -1.86531,1.63714 -11,0.61944 -5.5,-0.61275 -10.36828,-1.47258 -10.8184,-1.91073 -0.45013,-0.43814 -0.16892,-2.35107 0.6249,-4.25095 5.31739,-12.72632 21.76542,-19.78795 43.15124,-18.52614 15.00186,0.88515 23.07114,5.10224 27.62652,14.43793 2.22691,4.56377 2.36372,6.13245 3.03324,34.77934 0.38563,16.5 0.85445,30.9 1.04182,32 0.31997,1.87845 -0.2886,2.01739 -10.01332,2.28613 -11.80967,0.32636 -13.146,-0.25732 -13.146,-5.74191 0,-2.04099 -0.28866,-3.99955 -0.64147,-4.35236 -0.35281,-0.35281 -2.35924,1.12857 -4.45874,3.29196 -5.9139,6.09388 -11.08571,8.30339 -20.39979,8.71525 -5.88702,0.26032 -9.32614,-0.1204 -13.02091,-1.44144 z m 26.20581,-15.32424 c 6.72395,-2.54764 11.25715,-10.05997 11.29314,-18.71477 0.0268,-6.45338 -0.65383,-6.8223 -9.72027,-5.26847 -8.72924,1.49604 -14.96985,4.53021 -17.35175,8.43636 -6.15014,10.08582 3.9436,20.03114 15.77888,15.54688 z m 151.25389,15.70164 c -6.41144,-1.72892 -10.39091,-4.88505 -13.10296,-10.39201 -2.20889,-4.48527 -2.363,-6.10159 -2.83583,-29.74302 l -0.5,-25 -6,-0.5 -6,-0.5 0,-7.5 0,-7.5 5.97599,-0.30665 c 3.2868,-0.16865 6.31741,-0.84365 6.73469,-1.5 0.41728,-0.65634 0.76559,-4.65156 0.77401,-8.87825 0.0245,-12.31715 0.086,-12.38672 11.61265,-13.14388 5.37115,-0.35282 10.02154,-0.38775 10.33419,-0.0776 0.31266,0.31013 0.79347,5.59094 1.06847,11.73513 l 0.5,11.17127 7.75,0.29206 7.75,0.29207 0,7.91587 0,7.91587 -7.75,0.29207 -7.75,0.29206 -0.26913,21.61559 c -0.32894,26.41964 -0.38226,26.28387 10.42983,26.55749 l 6.8393,0.17307 0,8.31711 0,8.3171 -3,0.6415 c -5.06826,1.08378 -17.75178,0.81009 -22.56121,-0.48683 z M 96.761282,707.23877 c -0.80058,-2.0863 -0.81158,-103.78113 -0.0115,-105.86625 0.53379,-1.39103 4.000948,-1.58001 28.749998,-1.56701 21.29342,0.0112 29.66884,0.37452 34.41217,1.49286 17.28406,4.07507 25.23085,13.36302 25.23085,29.489 0,12.57455 -4.41916,21.2345 -13.57362,26.59937 -2.47039,1.44775 -4.40911,3.32536 -4.38731,4.24901 0.0215,0.91024 4.25329,11.55498 9.40399,23.65498 5.15071,12.1 9.15657,22.3375 8.90191,22.75 -0.25465,0.4125 -6.00635,0.75 -12.78154,0.75 -9.24692,0 -12.60379,-0.34371 -13.46252,-1.37841 -0.62919,-0.75813 -4.90766,-10.54563 -9.50771,-21.75 l -8.36373,-20.37159 -9.36474,0 -9.36473,0 -0.5,21.5 -0.5,21.5 -12.13157,0.27983 c -10.401398,0.23992 -12.219758,0.05 -12.749998,-1.33179 z m 55.381568,-62.98206 c 6.70135,-3.89447 8.86454,-13.44519 4.54012,-20.04509 -3.20998,-4.89906 -9.02471,-6.51961 -22.25673,-6.20291 l -11.78339,0.28202 -0.28135,12.94711 c -0.15474,7.12092 -0.0391,13.57853 0.25708,14.35025 0.43314,1.12874 3.03033,1.33463 13.28135,1.05288 10.58226,-0.29085 13.33637,-0.69512 16.24292,-2.38426 z m 221.45868,63.28402 c -0.26321,-0.6875 -0.36159,-25.1 -0.21862,-54.25 l 0.25994,-53 11.75,-0.28174 11.75,-0.28173 0,54.53174 0,54.53173 -11.53138,0 c -8.30322,0 -11.66536,-0.34993 -12.00994,-1.25 z m 40.99796,-0.002 c -0.26432,-0.68882 -0.3627,-18.80132 -0.21861,-40.25 l 0.26197,-38.998 11.75,-0.28173 11.75,-0.28174 0,40.53174 0,40.53173 -11.53138,0 c -8.31437,0 -11.66546,-0.34939 -12.01198,-1.25239 z m -0.035,-91.0912 c -0.28357,-0.73897 -0.38195,-4.67647 -0.21862,-8.75 l 0.29698,-7.4068 11.75,-0.28174 11.75,-0.28173 0,9.03173 0,9.03174 -11.53138,0 c -8.73099,0 -11.6566,-0.32629 -12.04697,-1.34359 z"
       style="fill:#ffffff;fill-opacity:1;stroke:#000000;stroke-width:1;stroke-miterlimit:4;stroke-opacity:1;stroke-dasharray:none" />
    <path
       inkscape:connector-curvature="0"
       id="path3823"
       d="m 510.14285,737.959 c -2.40974,-0.73106 -2.5,-1.0637 -2.5,-9.21335 l 0,-8.45492 7.55915,0.34316 c 11.94843,0.54243 17.94085,-3.32653 17.94085,-11.58335 0,-1.56174 -6.3,-19.66261 -14,-40.22418 -7.7,-20.56156 -14,-38.20612 -14,-39.21014 0,-1.66035 1.02922,-1.82549 11.37756,-1.82549 7.90731,0 11.67955,0.38126 12.36768,1.25 0.54457,0.6875 1.69631,3.5 2.55944,6.25 10.63873,33.89618 13.97377,43.57385 14.9087,43.26221 0.59824,-0.19942 4.61897,-11.29385 8.93495,-24.6543 4.31599,-13.36046 8.0998,-24.70037 8.40847,-25.19982 0.75037,-1.21411 16.16352,-1.16964 16.91656,0.0488 1.04031,1.68326 -32.19176,93.03381 -35.85221,98.55294 -5.06105,7.63093 -11.42328,10.69802 -23.02753,11.10104 -5.00149,0.17371 -10.21862,-0.0255 -11.59362,-0.44261 z M 221.39352,709.31345 c -16.4564,-4.64407 -26.73757,-16.70284 -29.21914,-34.27111 -2.62505,-18.58408 6.19532,-37.71491 20.83121,-45.18159 15.25028,-7.78011 36.02039,-6.08669 47.31806,3.85792 7.95102,6.99877 13.157,19.89062 12.61882,31.24867 l -0.29962,6.32339 -27.46647,0.26647 c -15.10655,0.14655 -27.86565,0.66565 -28.35354,1.15354 -1.44896,1.44896 1.15379,11.17328 3.98357,14.88332 6.85563,8.98819 21.65015,7.99639 27.87783,-1.86889 l 2.54054,-4.02448 6.20904,0.58627 c 13.45408,1.27038 14.70943,1.55348 14.69965,3.31504 -0.0185,3.32365 -6.10486,12.23253 -11.0012,16.10286 -2.74189,2.16734 -7.57369,4.91279 -10.73733,6.10102 -7.54582,2.8341 -21.69455,3.56959 -29.00142,1.50757 z m 27.00329,-55.02272 c -0.45644,-7.42056 -7.32574,-13.5 -15.25396,-13.5 -7.8834,0 -14.64998,5.9715 -15.7084,13.86265 l -0.56193,4.18951 15.88516,-0.27608 15.88517,-0.27608 -0.24604,-4 z m 49.22513,54.76463 c -9.80718,-3.52016 -14.50395,-8.61926 -16.49633,-17.90941 -0.76785,-3.58034 -0.76117,-6.39386 0.0235,-9.92593 3.09083,-13.91221 15.50146,-21.00246 41.4937,-23.70557 l 12,-1.24796 0.30861,-3.1742 c 0.7054,-7.25499 -5.12465,-12.30156 -14.21135,-12.30156 -6.30315,0 -9.57356,1.44058 -13.60433,5.99257 l -3.50711,3.96062 -9.49289,-1.04868 c -5.22109,-0.57677 -9.86117,-1.40702 -10.31129,-1.845 -1.2071,-1.17453 1.59499,-7.166 5.35328,-11.44646 8.16694,-9.30163 27.68496,-13.81526 45.49974,-10.52202 10.68505,1.97524 17.90256,7.43186 21.04785,15.9127 1.69631,4.57384 1.97468,9.65768 2.72392,49.74627 l 0.3224,17.25 -10.11439,0 c -11.40794,0 -12.5144,-0.54296 -12.5144,-6.14098 0,-2.05754 -0.3787,-3.97503 -0.84155,-4.26109 -0.46285,-0.28606 -2.37535,1.07756 -4.25,3.03027 -7.92954,8.25973 -22.45106,11.57695 -33.42936,7.63643 z m 26.84972,-15.62866 c 6.75768,-2.82353 11.12422,-10.99134 10.49745,-19.63597 -0.29835,-4.11506 -0.57061,-4.52795 -3.18272,-4.82669 -1.57106,-0.17969 -6.23651,0.42529 -10.36769,1.34439 -11.57154,2.57442 -17.25077,9.08148 -15.07326,17.27039 1.64611,6.19048 10.48298,9.04143 18.12622,5.84788 z m 150.60998,16.06689 c -6.46458,-1.83938 -10.4078,-4.98717 -13.10296,-10.45984 -2.20889,-4.48527 -2.363,-6.10159 -2.83583,-29.74302 l -0.5,-25 -6,-0.5 -6,-0.5 0,-7.5 0,-7.5 6.24288,-0.29753 c 7.24703,-0.34539 7.01021,0.0636 7.47432,-12.90786 0.16147,-4.51296 0.74115,-8.62976 1.28819,-9.14845 0.54703,-0.51868 5.26961,-1.10126 10.49461,-1.29461 l 9.5,-0.35155 0.5,11.5 0.5,11.5 8,0.5 8,0.5 0,7.5 0,7.5 -8,0.5 -8,0.5 0,21.83792 0,21.83792 2.80576,2.41208 c 2.27121,1.95253 3.91605,2.41208 8.63337,2.41208 5.19812,0 5.89274,0.24304 6.43058,2.25 1.16211,4.3364 0.67884,12.46482 -0.8148,13.70443 -2.15027,1.78456 -19.15726,2.30164 -24.61612,0.74843 z M 96.749842,707.20894 c -0.94146,-2.4534 -0.68496,-104.74691 0.26641,-106.24761 0.67944,-1.07175 6.636248,-1.25472 30.734688,-0.94407 27.54125,0.35504 30.41512,0.55869 36.54523,2.58973 8.45936,2.80275 15.93144,9.24103 18.52462,15.96162 2.20886,5.72457 2.4348,18.87173 0.42341,24.63798 -1.69636,4.86314 -8.26947,12.1191 -13.3064,14.68875 -2.08722,1.06482 -3.79495,2.32861 -3.79495,2.80843 0,0.47982 4.27373,10.93317 9.49717,23.22968 5.22344,12.2965 9.49844,22.91978 9.5,23.60728 0.004,1.88598 -24.32459,1.76534 -25.89626,-0.12841 -0.62919,-0.75813 -4.90766,-10.54563 -9.50771,-21.75 l -8.36373,-20.37159 -9.36474,0 -9.36473,0 -0.55029,21.5 c -0.30266,11.825 -0.64016,21.6125 -0.75,21.75 -0.10984,0.1375 -5.55157,0.25 -12.09272,0.25 -9.922378,0 -11.993588,-0.2621 -12.499998,-1.58179 z m 55.393008,-62.95223 c 6.70135,-3.89447 8.86454,-13.44519 4.54012,-20.04509 -3.20998,-4.89906 -9.02471,-6.51961 -22.25673,-6.20291 l -11.78339,0.28202 -0.28135,12.94711 c -0.15474,7.12092 -0.0391,13.57853 0.25708,14.35025 0.43314,1.12874 3.03033,1.33463 13.28135,1.05288 10.58226,-0.29085 13.33637,-0.69512 16.24292,-2.38426 z m 221.47131,63.31695 c -0.27015,-0.70561 -0.37422,-25.13293 -0.23125,-54.28293 l 0.25994,-53 11.5,0 11.5,0 0,54 0,54 -11.26875,0.28293 c -8.45749,0.21234 -11.39129,-0.0371 -11.75994,-1 z m 40.99797,-0.002 c -0.27128,-0.70692 -0.37534,-18.83424 -0.23125,-40.28292 l 0.26197,-38.99801 11.5,0 11.5,0 0,40 0,40 -11.26875,0.28293 c -8.46758,0.21259 -11.39135,-0.0366 -11.76197,-1.0024 z m -0.035,-91.09119 c -0.29052,-0.75708 -0.39458,-4.7094 -0.23125,-8.78293 l 0.29697,-7.40681 11.5,0 11.5,0 0,8.5 0,8.5 -11.26875,0.28293 c -8.84147,0.22198 -11.38253,-0.0136 -11.79697,-1.09359 z"
       style="fill:#ffffff;fill-opacity:1;stroke:#000000;stroke-width:1;stroke-miterlimit:4;stroke-opacity:1;stroke-dasharray:none" />
    <path
       inkscape:connector-curvature="0"
       id="path3821"
       d="m 510.14285,737.89597 c -2.41427,-0.67156 -2.5,-0.98484 -2.5,-9.13552 l 0,-8.44011 7.5872,0.31664 c 11.97034,0.49956 17.9128,-3.34417 17.9128,-11.58644 0,-1.56174 -6.3,-19.66261 -14,-40.22418 -7.7,-20.56156 -14,-38.20612 -14,-39.21014 0,-1.66117 1.032,-1.82549 11.46482,-1.82549 9.90683,0 11.58801,0.23781 12.37143,1.75 0.49863,0.9625 4.13235,12.1 8.07493,24.75 3.94257,12.65 7.39197,23.64239 7.66531,24.42754 1.09799,3.15379 3.32514,-2.05443 10.44577,-24.42754 4.02609,-12.65 7.70895,-23.7875 8.18413,-24.75 0.71401,-1.44624 2.23624,-1.75 8.76978,-1.75 4.34819,0 8.12109,0.34836 8.38423,0.77412 0.77985,1.26182 -32.15727,92.32454 -35.15382,97.19135 -3.67324,5.96584 -9.96911,10.60341 -16.21281,11.94245 -5.57069,1.19469 -15.05399,1.29321 -18.99377,0.19732 z M 221.39352,709.24559 c -16.29312,-4.38736 -26.73392,-16.60912 -29.21914,-34.20325 -2.62251,-18.56612 6.19592,-37.71522 20.79927,-45.16529 16.66731,-8.50303 37.2168,-5.94656 48.86845,6.07949 7.04955,7.27608 11.85851,20.74734 11.10682,31.11335 l -0.30607,4.22084 -28,0.5 -28,0.5 -0.3205,3.34576 c -0.49477,5.16499 3.92184,13.28088 8.68384,15.95728 7.99409,4.49292 18.8144,1.83591 23.63751,-5.80439 2.3828,-3.77459 2.69925,-3.93879 6.74958,-3.50205 2.33726,0.25201 6.82998,0.72487 9.98381,1.05079 3.15383,0.32592 5.98246,0.99422 6.28584,1.4851 0.97336,1.57493 -4.2139,10.33399 -8.68589,14.66676 -9.80304,9.49784 -27.29831,13.60228 -41.58352,9.75561 z m 27.00329,-54.95486 c -0.81295,-13.21651 -19.79018,-18.53283 -28.16227,-7.88943 -2.34629,2.98282 -4.50442,9.9126 -3.56197,11.43752 0.38304,0.61977 6.59837,0.89704 16.29476,0.72692 l 15.67552,-0.27501 -0.24604,-4 z m 49.22513,54.76441 c -9.80691,-3.51963 -14.50393,-8.61893 -16.49633,-17.90919 -0.76785,-3.58034 -0.76117,-6.39386 0.0235,-9.92593 3.09083,-13.91221 15.50146,-21.00246 41.4937,-23.70557 l 12,-1.24796 0.30861,-3.1742 c 0.16973,-1.74581 -0.42265,-4.58831 -1.31642,-6.31666 -4.2076,-8.13661 -22.71873,-8.01069 -27.39598,0.18636 -0.87791,1.53859 -2.08136,2.98567 -2.67431,3.21574 -1.60955,0.62451 -18.79358,-1.39838 -19.7403,-2.32381 -0.45013,-0.44 -0.16892,-2.35444 0.6249,-4.25432 5.25894,-12.58641 22.22869,-19.98518 42.29937,-18.44243 10.40785,0.80001 17.37897,3.07277 22.27235,7.26132 7.52549,6.44153 8.91314,14.11753 9.19661,50.87224 l 0.19281,25 -9.73623,0.28745 c -11.18784,0.3303 -12.53137,-0.29699 -12.53137,-5.85088 0,-2.10019 -0.46681,-4.10704 -1.03735,-4.45965 -0.57054,-0.35262 -2.86269,1.23978 -5.09367,3.53865 -2.23097,2.29887 -6.07637,5.07333 -8.54533,6.16546 -6.45896,2.85711 -17.50407,3.35894 -23.84456,1.08338 z m 26.84972,-15.62844 c 6.75768,-2.82353 11.12422,-10.99134 10.49745,-19.63597 -0.30146,-4.15798 -0.55178,-4.52564 -3.29343,-4.83738 -4.16674,-0.47377 -14.26552,1.66036 -18.79746,3.97238 -4.56429,2.32853 -7.7265,7.11993 -7.73163,11.715 -0.003,2.47942 0.87983,4.23357 3.39626,6.75 2.88799,2.88799 4.09755,3.4 8.03212,3.4 2.54766,0 6.10118,-0.61381 7.89669,-1.36403 z m 150.60998,16.06678 c -6.4645,-1.8392 -10.40777,-4.98701 -13.10296,-10.45973 -2.20889,-4.48527 -2.363,-6.10159 -2.83583,-29.74302 l -0.5,-25 -6,-0.5 -6,-0.5 0,-7.5 0,-7.5 5.97599,-0.30665 c 3.2868,-0.16865 6.31741,-0.84365 6.73469,-1.5 0.41728,-0.65634 0.76559,-4.65156 0.77401,-8.87825 0.0243,-12.17832 0.22224,-12.42063 10.68506,-13.07781 5.29604,-0.33265 9.31739,-0.15286 10.04738,0.4492 0.78109,0.64421 1.31848,4.82105 1.5,11.65868 l 0.28287,10.65483 6.95831,0.30044 c 3.82707,0.16524 7.53957,0.78284 8.25,1.37244 1.72628,1.43269 1.72628,12.22155 0,13.65424 -0.71043,0.5896 -4.42293,1.2072 -8.25,1.37244 l -6.95831,0.30044 -0.26957,21.77588 -0.26958,21.77588 2.47412,2.47412 c 2.12817,2.12817 3.38935,2.47412 9.01958,2.47412 l 6.54545,0 0,7.89301 c 0,6.3836 -0.31271,8.01301 -1.63522,8.5205 -3.58183,1.37448 -18.94484,1.56416 -23.42599,0.28924 z M 96.761622,707.23965 c -0.80081,-2.08689 -0.81213,-103.78145 -0.0118,-105.86713 0.53174,-1.3857 3.785958,-1.58107 26.249998,-1.576 32.55729,0.007 40.76553,1.20425 49.77373,7.2578 8.18138,5.49793 11.60081,12.6418 11.60081,24.23641 0,11.80768 -4.30764,20.14338 -13.29737,25.73171 -2.71379,1.68698 -4.93416,3.58413 -4.93416,4.21589 0,0.63176 4.26296,11.20194 9.47325,23.4893 5.21028,12.28737 9.23372,22.72821 8.94098,23.20188 -0.29275,0.47367 -5.85061,0.86122 -12.3508,0.86122 -8.82208,0 -12.10858,-0.34948 -12.96252,-1.37841 -0.62919,-0.75813 -4.90766,-10.54563 -9.50771,-21.75 l -8.36373,-20.37159 -9.86474,0 -9.86473,0 -0.5,21.5 -0.5,21.5 -11.63123,0.28071 c -9.944598,0.24 -11.720948,0.0469 -12.249998,-1.33179 z m 55.381228,-62.98294 c 6.70135,-3.89447 8.86454,-13.44519 4.54012,-20.04509 -3.24502,-4.95252 -8.98488,-6.51697 -22.75456,-6.20195 l -12.28556,0.28106 -0.28135,12.94711 c -0.15474,7.12092 -0.0394,13.5775 0.25621,14.34797 0.43305,1.12853 3.11213,1.33321 13.78135,1.05288 11.09293,-0.29145 13.81221,-0.6783 16.74379,-2.38198 z m 221.45868,63.28402 c -0.26321,-0.6875 -0.36159,-25.1 -0.21862,-54.25 l 0.25994,-53 10.354,-0.28613 c 6.7762,-0.18726 10.83639,0.11421 11.75,0.87244 1.90846,1.58389 2.09806,104.81163 0.196,106.71369 -1.70212,1.70212 -21.68766,1.65739 -22.34132,-0.05 z m 40.99796,-0.002 c -0.26432,-0.68882 -0.3627,-18.80132 -0.21861,-40.25 l 0.26197,-38.998 10.354,-0.28613 c 6.7762,-0.18726 10.83639,0.11421 11.75,0.87244 1.90154,1.57814 2.08889,76.8208 0.196,78.71369 -1.70404,1.70404 -21.68733,1.65718 -22.34336,-0.0524 z m -0.035,-91.0912 c -0.28357,-0.73897 -0.38195,-4.67647 -0.21862,-8.75 l 0.29698,-7.4068 10.354,-0.28613 c 6.7762,-0.18726 10.83639,0.11421 11.75,0.87244 1.77411,1.47239 1.93012,13.97957 0.196,15.71369 -1.77781,1.77781 -21.69007,1.65005 -22.37835,-0.14359 z"
       style="fill:#ffffff;fill-opacity:0;stroke:#000000;stroke-width:1;stroke-miterlimit:4;stroke-opacity:1;stroke-dasharray:none" />
  </g>
</svg>
